<?xml version="1.0" standalone="no"?>
<!DOCTYPE svg PUBLIC "-//W3C//DTD SVG 20010904//EN"
 "http://www.w3.org/TR/2001/REC-SVG-20010904/DTD/svg10.dtd">
<svg version="1.0" xmlns="http://www.w3.org/2000/svg"
 width="512.000000pt" height="512.000000pt" viewBox="0 0 512.000000 512.000000"
 preserveAspectRatio="xMidYMid meet">
<metadata>
Created by potrace 1.14, written by Peter Selinger 2001-2017
</metadata>
<g transform="translate(0.000000,512.000000) scale(0.100000,-0.100000)"
fill="#000000" stroke="none">
<path d="M2470 4263 c-51 -9 -146 -47 -195 -78 -97 -61 -161 -139 -206 -250
-29 -70 -33 -93 -35 -182 -3 -133 19 -209 92 -319 65 -98 188 -180 320 -214
l41 -10 -1 -182 -1 -183 -80 -1 c-44 -1 -83 -2 -87 -3 -5 -1 -8 -14 -8 -30 l0
-28 -1092 -1 c-601 0 -1108 -1 -1126 -1 l-32 -1 2 -967 3 -968 2495 0 2495 0
3 968 2 967 -22 1 c-13 0 -519 1 -1125 1 -799 1 -1103 4 -1104 12 -1 6 0 17 1
25 3 22 -15 27 -100 25 l-80 -1 0 183 c0 202 -5 187 67 200 67 12 174 75 239
142 176 179 205 446 71 655 -98 152 -247 237 -422 242 -49 1 -101 0 -115 -2z"/>
</g>
</svg>
