<?xml version="1.0" standalone="no"?>
<!DOCTYPE svg PUBLIC "-//W3C//DTD SVG 20010904//EN"
 "http://www.w3.org/TR/2001/REC-SVG-20010904/DTD/svg10.dtd">
<svg version="1.0" xmlns="http://www.w3.org/2000/svg"
 width="512.000000pt" height="512.000000pt" viewBox="0 0 512.000000 512.000000"
 preserveAspectRatio="xMidYMid meet">
<metadata>
Created by potrace 1.14, written by Peter Selinger 2001-2017
</metadata>
<g transform="translate(0.000000,512.000000) scale(0.100000,-0.100000)"
fill="#000000" stroke="none">
<path d="M445 4543 c-4 -10 -8 -29 -10 -43 -2 -14 -22 -110 -44 -215 -22 -104
-51 -247 -66 -318 l-26 -127 37 -68 c20 -37 68 -123 107 -192 38 -69 87 -156
108 -195 21 -38 60 -110 88 -160 l51 -90 0 -781 0 -782 48 -53 c26 -30 56 -63
67 -75 28 -29 199 -216 265 -290 30 -34 62 -64 70 -67 8 -2 287 -105 620 -227
333 -122 649 -238 702 -257 l98 -35 157 57 c87 32 194 71 238 87 44 16 134 49
200 73 115 41 330 120 520 190 50 19 140 52 202 74 116 42 111 38 215 152 90
98 205 224 214 233 6 6 36 40 67 75 l57 64 0 781 0 782 103 185 c57 102 107
192 110 200 4 8 15 28 25 44 10 17 49 85 86 153 l67 124 -21 96 c-11 53 -23
108 -25 122 -3 14 -27 131 -53 260 l-48 235 -365 2 -364 3 -145 -182 c-152
-192 -167 -211 -214 -265 l-29 -34 -34 38 c-20 21 -55 59 -79 86 l-45 47 -843
0 -844 0 -15 -22 c-9 -13 -43 -52 -75 -87 l-60 -63 -48 59 c-27 32 -114 140
-194 241 l-145 182 -361 0 c-335 0 -362 -1 -369 -17z m3001 -374 c33 -34 65
-67 72 -74 6 -8 12 -16 12 -19 0 -3 -436 -6 -970 -6 -533 0 -970 2 -970 5 0 3
8 13 18 23 9 10 41 44 70 75 l54 57 828 0 828 0 58 -61z m94 -123 c0 -3 -74
-179 -164 -393 -90 -213 -175 -415 -189 -448 l-25 -60 -598 0 c-612 -1 -624 0
-624 36 0 9 -53 138 -95 234 -26 58 -158 371 -192 455 -19 47 -43 103 -54 126
-10 22 -19 43 -19 47 0 4 441 7 980 7 539 0 980 -2 980 -4z m-1911 -170 c17
-46 92 -225 126 -301 41 -91 175 -415 175 -422 0 -5 -270 -9 -599 -9 l-599 0
25 31 c14 16 51 57 82 90 48 52 208 225 291 315 14 15 66 72 116 126 110 119
117 126 224 243 l84 92 28 -57 c15 -31 36 -80 47 -108z m2135 -51 c51 -55 105
-113 120 -130 24 -26 151 -163 236 -255 14 -15 68 -73 120 -130 52 -57 107
-116 123 -133 15 -16 27 -30 27 -31 0 -1 -270 -1 -600 -1 -330 -1 -600 3 -600
8 0 7 80 200 145 352 53 125 206 486 215 510 l12 30 55 -60 c30 -33 96 -105
147 -160z m-2124 -707 c0 -5 -4 -8 -10 -8 -5 0 -37 -13 -72 -29 -35 -16 -116
-53 -182 -82 l-118 -52 -77 25 c-42 15 -128 45 -191 68 -63 23 -137 50 -165
60 -34 12 -44 18 -31 21 37 7 846 4 846 -3z m1503 2 c3 -3 -17 -50 -44 -105
-26 -55 -84 -175 -128 -267 -59 -124 -85 -168 -98 -169 -27 -1 -594 -1 -621 0
-19 1 -35 27 -107 179 -47 97 -105 218 -129 267 -24 50 -42 92 -41 95 4 6
1163 6 1168 0z m1199 -1 c-6 -5 -154 -61 -172 -65 -3 0 -12 -3 -20 -7 -58 -23
-275 -97 -284 -97 -11 0 -382 162 -390 171 -3 2 193 4 434 4 242 0 436 -3 432
-6z m-3358 -98 c136 -49 250 -91 253 -94 2 -3 -1 -32 -8 -64 -7 -32 -13 -60
-14 -63 0 -3 -19 -96 -40 -207 -22 -112 -42 -203 -45 -203 -5 0 -15 16 -74
125 -22 39 -58 104 -81 145 -23 41 -64 116 -90 165 -27 50 -61 112 -77 138
-15 26 -28 51 -28 54 0 4 -6 14 -13 22 -13 16 -39 71 -33 71 1 0 114 -40 250
-89z m3404 81 c-3 -7 -64 -118 -216 -392 -41 -74 -89 -162 -107 -195 -54 -100
-70 -125 -76 -125 -4 0 -10 21 -13 48 -9 58 -6 41 -56 282 -23 111 -38 205
-34 210 5 4 32 14 59 23 28 9 136 48 240 86 199 73 209 76 203 63z m21 -742
c0 -401 -3 -730 -7 -730 -13 1 -397 705 -395 725 1 11 61 126 133 255 72 129
151 271 175 315 59 110 90 165 92 165 1 0 2 -328 2 -730z m-3616 588 c41 -73
85 -153 99 -178 14 -25 38 -70 55 -100 133 -241 173 -314 173 -319 0 -7 -157
-294 -274 -499 -20 -35 -36 -68 -36 -72 0 -5 -6 -15 -12 -22 -7 -8 -26 -38
-42 -68 -16 -30 -32 -59 -37 -64 -4 -5 -8 321 -8 723 0 402 2 731 4 731 2 0
37 -60 78 -132z m2378 -810 l279 -418 -890 0 -890 0 279 418 279 419 332 0
331 0 280 -419z m-1772 -132 c128 -159 231 -295 229 -301 -3 -13 -35 -51 -163
-200 -38 -45 -86 -101 -105 -125 -19 -24 -44 -54 -55 -66 -11 -12 -36 -41 -57
-65 -20 -24 -46 -55 -58 -69 -12 -14 -29 -34 -37 -45 -13 -19 -17 -17 -86 56
-40 42 -112 120 -162 174 -49 54 -111 122 -137 149 -26 28 -48 55 -48 59 0 5
25 54 56 110 31 56 69 125 84 152 15 28 72 129 125 225 54 96 110 196 124 222
24 45 27 47 42 30 9 -9 121 -147 248 -306z m2611 283 c0 -4 36 -71 80 -149 44
-78 80 -144 80 -147 0 -3 8 -17 18 -31 11 -15 37 -61 59 -102 22 -41 66 -120
97 -176 31 -55 56 -105 56 -110 0 -5 -24 -34 -53 -65 -28 -31 -90 -98 -137
-149 -47 -51 -117 -127 -157 -169 -72 -76 -72 -76 -88 -54 -8 12 -21 28 -28
35 -7 7 -58 68 -114 134 -56 67 -108 128 -115 135 -7 8 -58 68 -113 134 -55
66 -103 122 -107 125 -6 5 55 90 120 165 10 11 98 120 196 243 162 203 179
221 192 205 7 -10 14 -21 14 -24z m-1893 -705 l36 -111 197 -76 c108 -43 203
-77 210 -77 26 0 400 152 400 163 0 6 15 57 32 114 l33 103 212 0 c117 0 213
-3 213 -7 0 -5 -35 -114 -78 -243 l-78 -235 -229 -77 c-127 -43 -237 -78 -245
-78 -8 0 -70 28 -137 62 l-122 63 -131 -65 -131 -65 -237 80 -237 80 -77 230
c-42 127 -77 236 -77 243 -1 10 43 12 205 10 l206 -3 35 -111z m1401 51 c9
-11 63 -75 119 -141 56 -67 108 -128 115 -135 7 -8 47 -54 88 -104 41 -49 87
-103 102 -120 25 -27 26 -31 10 -37 -9 -4 -111 -42 -227 -84 -303 -110 -398
-144 -415 -151 -8 -3 -19 -7 -25 -9 -5 -1 -27 -10 -49 -19 -21 -9 -40 -14 -43
-11 -3 2 60 199 138 436 125 374 145 428 157 413 7 -10 21 -27 30 -38z m-1855
3 c38 -104 268 -810 265 -813 -3 -3 -201 66 -353 124 -27 10 -102 38 -165 61
-207 75 -250 92 -250 97 0 6 42 58 92 114 13 15 39 46 60 70 20 24 48 58 62
74 14 17 79 94 144 172 64 78 120 142 123 142 4 1 13 -18 22 -41z m1570 -605
c-14 -43 -34 -107 -45 -143 -11 -36 -25 -70 -31 -77 -10 -9 -245 -98 -530
-199 l-68 -25 -292 106 c-161 59 -296 111 -302 116 -5 5 -30 72 -55 148 l-46
138 25 -7 c26 -7 188 -72 226 -90 11 -5 59 -25 108 -43 87 -34 87 -34 170 -21
77 11 277 12 323 1 33 -8 97 -9 119 -2 16 5 416 170 421 174 1 1 -9 -34 -23
-76z"/>
</g>
</svg>
